<svg xmlns="http://www.w3.org/2000/svg"
  xmlns:xlink="http://www.w3.org/1999/xlink" aria-hidden="true" style="position: absolute; width: 0; height: 0; overflow: hidden;" version="1.1">
  <defs>
    <symbol id="icon-currency-mxn" viewBox="0 0 32 32">
      <path fill="#6cde07" style="fill: var(--color74, #6cde07)" d="M32 16c0 8.837-7.163 16-16 16s-16-7.163-16-16c0-8.837 7.163-16 16-16s16 7.163 16 16z"></path>
      <path fill="#eb0a29" style="fill: var(--color108, #eb0a29)" d="M17.173 24.44v2.227h-1.933v-2.213c-2.223-0.104-4.207-1.054-5.652-2.532l-0.002-0.002 1.573-2.187c1.056 1.115 2.46 1.891 4.038 2.154l0.042 0.006v-4.68c-2.493-0.627-5.147-1.547-5.147-4.707 0-2.467 2.013-4.427 5.147-4.693v-2.227h1.933v2.267c1.901 0.161 3.588 0.965 4.87 2.19l-0.003-0.003-1.613 2.107c-0.866-0.846-1.976-1.446-3.213-1.687l-0.040-0.006v4.213c2.52 0.68 5.24 1.627 5.24 4.88 0 2.413-1.6 4.547-5.24 4.893zM15.24 14.107v-3.773c-1.333 0.147-2.227 0.893-2.227 1.987s0.933 1.427 2.227 1.787zM19.52 19.76c0-1.12-0.987-1.627-2.347-2.040v4.173c1.68-0.24 2.347-1.213 2.347-2.133z"></path>
    </symbol>
    <symbol id="icon-currency-myr" viewBox="0 0 32 32">
      <path fill="#eb0a29" style="fill: var(--color108, #eb0a29)" d="M32 16c0 8.837-7.163 16-16 16s-16-7.163-16-16c0-8.837 7.163-16 16-16s16 7.163 16 16z"></path>
      <path fill="#ffc800" style="fill: var(--color109, #ffc800)" d="M8.453 17.8h-1.973v4.56h-2.667v-12.72h5.907c0.080-0.006 0.174-0.009 0.268-0.009 2.209 0 4 1.791 4 4 0 0.041-0.001 0.081-0.002 0.122l0-0.006c0.004 0.063 0.006 0.138 0.006 0.212 0 1.715-1.177 3.155-2.768 3.556l-0.025 0.005 2.853 4.84h-3.107zM9.333 12h-2.853v3.507h2.853c0.046 0.004 0.099 0.007 0.153 0.007 0.972 0 1.76-0.788 1.76-1.76s-0.788-1.76-1.76-1.76c-0.054 0-0.107 0.002-0.16 0.007l0.007-0.001z"></path>
      <path fill="#ffc800" style="fill: var(--color109, #ffc800)" d="M25.507 13.213l-3.587 9.147h-1.173l-3.587-9.147v9.147h-2.667v-12.72h3.787l3.053 7.933 3.093-7.933h3.8v12.72h-2.667z"></path>
    </symbol>
    <symbol id="icon-currency-inr" viewBox="0 0 32 32">
      <path fill="#eac749" style="fill: var(--color110, #eac749)" d="M32 16c0 8.837-7.163 16-16 16s-16-7.163-16-16c0-8.837 7.163-16 16-16s16 7.163 16 16z"></path>
      <path fill="#276304" style="fill: var(--color111, #276304)" d="M22 9.733h-3.867c0.741 0.59 1.274 1.414 1.488 2.359l0.005 0.028h2.373v1.933h-2.32c-0.248 1.925-1.663 3.462-3.503 3.887l-0.031 0.006 3.707 6.227h-4l-3.24-5.813h-2.667v-2.787h3.747c0.052 0.004 0.112 0.006 0.173 0.006 1.016 0 1.886-0.624 2.248-1.51l0.006-0.016h-6.12v-1.933h6.2c-0.374-0.869-1.223-1.466-2.211-1.466-0.085 0-0.17 0.004-0.253 0.013l0.010-0.001h-3.747v-2.84h12z"></path>
    </symbol>
    <symbol id="icon-currency-php" viewBox="0 0 32 32">
      <path fill="#0f97f8" style="fill: var(--color112, #0f97f8)" d="M32 16c0 8.837-7.163 16-16 16s-16-7.163-16-16c0-8.837 7.163-16 16-16s16 7.163 16 16z"></path>
      <path fill="#fff" style="fill: var(--color16, #fff)" d="M24.987 13.813v-1.507h-2.547c-0.483-2.343-2.529-4.079-4.98-4.079-0.124 0-0.247 0.004-0.369 0.013l0.016-0.001h-7.68v4.067h-2.413v1.507h2.413v1.013h-2.413v1.493h2.413v8.267h3.48v-4.2h4.173c0.113 0.009 0.244 0.014 0.377 0.014 2.425 0 4.453-1.704 4.95-3.981l0.006-0.034h2.533v-1.56h-2.373v-1.013zM12.907 11.227h3.707c0.025-0.001 0.055-0.002 0.084-0.002 0.824 0 1.548 0.427 1.964 1.072l0.006 0.009h-5.76zM16.613 17.4h-3.707v-1.080h5.76c-0.418 0.654-1.14 1.082-1.962 1.082-0.032 0-0.064-0.001-0.096-0.002l0.005 0zM19.013 14.827h-6.107v-1.013h6.107z"></path>
    </symbol>
    <symbol id="icon-currency-brl" viewBox="0 0 32 32">
      <path fill="#279904" style="fill: var(--color113, #279904)" d="M32 16c0 8.837-7.163 16-16 16s-16-7.163-16-16c0-8.837 7.163-16 16-16s16 7.163 16 16z"></path>
      <path fill="#ffc800" style="fill: var(--color109, #ffc800)" d="M9.413 18.16h-2.747v6.027h-2.893v-16.187h7.093c0.125-0.011 0.27-0.018 0.416-0.018 2.717 0 4.92 2.203 4.92 4.92 0 0.058-0.001 0.115-0.003 0.173l0-0.008c0.005 0.079 0.008 0.172 0.008 0.265 0 2.262-1.656 4.137-3.822 4.478l-0.026 0.003 4 6.347h-3.36zM10.48 10.52h-3.813v5.147h3.867c0.079 0.008 0.17 0.013 0.262 0.013 1.429 0 2.587-1.158 2.587-2.587s-1.158-2.587-2.587-2.587c-0.092 0-0.184 0.005-0.274 0.014l0.011-0.001z"></path>
      <path fill="#ffc800" style="fill: var(--color109, #ffc800)" d="M23.6 24.44v2.227h-1.947v-2.213c-2.225-0.099-4.21-1.049-5.651-2.531l-0.002-0.002 1.573-2.187c1.035 1.103 2.41 1.877 3.957 2.154l0.043 0.006v-4.68c-2.493-0.627-5.133-1.547-5.133-4.707 0-2.467 2.013-4.427 5.133-4.693v-2.227h2.027v2.267c1.901 0.161 3.588 0.965 4.87 2.19l-0.003-0.003-1.627 2.107c-0.862-0.845-1.967-1.446-3.2-1.687l-0.040-0.006v4.213c2.507 0.68 5.227 1.627 5.227 4.88 0 2.413-1.6 4.547-5.227 4.893zM21.653 14.107v-3.773c-1.333 0.147-2.227 0.893-2.227 1.987s0.947 1.427 2.227 1.787zM25.947 19.76c0-1.12-1-1.627-2.347-2.040v4.173c1.733-0.24 2.347-1.213 2.347-2.133z"></path>
    </symbol>
    <symbol id="icon-currency-cad" viewBox="0 0 32 32">
      <path fill="#eaa749" style="fill: var(--color114, #eaa749)" d="M32 16c0 8.837-7.163 16-16 16s-16-7.163-16-16c0-8.837 7.163-16 16-16s16 7.163 16 16z"></path>
      <path fill="#61121f" style="fill: var(--color115, #61121f)" d="M17.173 24.44v2.227h-1.933v-2.213c-2.223-0.104-4.207-1.054-5.652-2.532l-0.002-0.002 1.573-2.187c1.056 1.115 2.46 1.891 4.038 2.154l0.042 0.006v-4.68c-2.493-0.627-5.147-1.547-5.147-4.707 0-2.467 2.013-4.427 5.147-4.693v-2.227h1.933v2.267c1.901 0.161 3.588 0.965 4.87 2.19l-0.003-0.003-1.613 2.107c-0.866-0.846-1.976-1.446-3.213-1.687l-0.040-0.006v4.213c2.52 0.68 5.24 1.627 5.24 4.88 0 2.413-1.6 4.547-5.24 4.893zM15.24 14.107v-3.773c-1.333 0.147-2.227 0.893-2.227 1.987s0.933 1.427 2.227 1.787zM19.52 19.76c0-1.12-0.987-1.627-2.347-2.040v4.173c1.68-0.24 2.347-1.213 2.347-2.133z"></path>
    </symbol>
    <symbol id="icon-currency-cny" viewBox="0 0 32 32">
      <path fill="#eb0a29" style="fill: var(--color108, #eb0a29)" d="M32 16c0 8.837-7.163 16-16 16s-16-7.163-16-16c0-8.837 7.163-16 16-16s16 7.163 16 16z"></path>
      <path fill="#eac749" style="fill: var(--color110, #eac749)" d="M18.493 15.84h4.707v1.627h-5.773v2.227h5.773v1.64h-5.773v2.853h-2.76v-2.853h-5.813v-1.64h5.813v-2.227h-5.813v-1.627h4.68l-5.213-7.84h3.24l4.44 6.947 4.44-6.947h3.24z"></path>
    </symbol>
    <symbol id="icon-currency-cop" viewBox="0 0 32 32">
      <path fill="#ffc800" style="fill: var(--color109, #ffc800)" d="M32 16c0 8.837-7.163 16-16 16s-16-7.163-16-16c0-8.837 7.163-16 16-16s16 7.163 16 16z"></path>
      <path fill="#eb0a29" style="fill: var(--color108, #eb0a29)" d="M17.173 24.44v2.227h-1.933v-2.213c-2.223-0.104-4.207-1.054-5.652-2.532l-0.002-0.002 1.573-2.187c1.056 1.115 2.46 1.891 4.038 2.154l0.042 0.006v-4.68c-2.493-0.627-5.147-1.547-5.147-4.707 0-2.467 2.013-4.427 5.147-4.693v-2.227h1.933v2.267c1.901 0.161 3.588 0.965 4.87 2.19l-0.003-0.003-1.613 2.107c-0.866-0.846-1.976-1.446-3.213-1.687l-0.040-0.006v4.213c2.52 0.68 5.24 1.627 5.24 4.88 0 2.413-1.6 4.547-5.24 4.893zM15.24 14.107v-3.773c-1.333 0.147-2.227 0.893-2.227 1.987s0.933 1.427 2.227 1.787zM19.52 19.76c0-1.12-0.987-1.627-2.347-2.040v4.173c1.68-0.24 2.347-1.213 2.347-2.133z"></path>
    </symbol>
    <symbol id="icon-currency-idr" viewBox="0 0 32 32">
      <path fill="#fff" style="fill: var(--color16, #fff)" d="M32 16c0 8.837-7.163 16-16 16s-16-7.163-16-16c0-8.837 7.163-16 16-16s16 7.163 16 16z"></path>
      <path fill="#eb0a29" style="fill: var(--color108, #eb0a29)" d="M10.12 17.093h-2.813v6.027h-2.84v-16.16h7.107c0.129-0.012 0.279-0.019 0.43-0.019 2.71 0 4.907 2.197 4.907 4.907 0 0.063-0.001 0.126-0.004 0.188l0-0.009c0.005 0.080 0.008 0.173 0.008 0.268 0 2.257-1.649 4.129-3.809 4.476l-0.026 0.003 4 6.347h-3.373zM11.187 9.453h-3.88v5.133h3.88c0.055 0.004 0.12 0.007 0.185 0.007 1.421 0 2.573-1.152 2.573-2.573s-1.152-2.573-2.573-2.573c-0.065 0-0.13 0.002-0.194 0.007l0.009-0.001z"></path>
      <path fill="#eb0a29" style="fill: var(--color108, #eb0a29)" d="M18.107 27.587v-16.173h2.547v1.6c0.857-1.146 2.211-1.88 3.737-1.88 0.004 0 0.007 0 0.011 0h-0.001c3.027 0 5.187 2.28 5.187 6.12s-2.16 6.16-5.187 6.16c-0.011 0-0.023 0-0.035 0-1.526 0-2.877-0.752-3.702-1.906l-0.009-0.014v6.093zM23.653 13.333c-1.234 0.018-2.322 0.63-2.992 1.562l-0.008 0.011v4.627c0.69 0.93 1.77 1.536 2.994 1.573l0.006 0c2.013 0 3.293-1.627 3.293-3.907s-1.28-3.867-3.293-3.867z"></path>
    </symbol>
    <symbol id="icon-currency-krw" viewBox="0 0 32 32">
      <path fill="#0f97f8" style="fill: var(--color112, #0f97f8)" d="M32 16c0 8.837-7.163 16-16 16s-16-7.163-16-16c0-8.837 7.163-16 16-16s16 7.163 16 16z"></path>
      <path fill="#fff" style="fill: var(--color16, #fff)" d="M25.187 13.587h1.333v1.507h-1.747l-0.533 1.893h2.32v1.493h-2.76l-1.627 5.693h-3.027l-1.493-5.693h-3.28l-1.493 5.693h-3.040l-1.613-5.693h-2.773v-1.493h2.333l-0.533-1.893h-1.8v-1.507h1.333l-1.573-5.587h3.173l1.413 5.573h3.533l1.547-5.573h2.253l1.533 5.587h3.56l1.387-5.587h3.173zM13 15.093h-2.813l0.48 1.893h1.813zM11.547 20.427l0.533-1.987h-1.053zM17.333 16.987l-0.52-1.893h-1.56l-0.493 1.893zM16 12.253l-0.333 1.333h0.693zM21.84 15.093h-2.813l0.507 1.893h1.8zM20.987 18.48h-0.987l0.533 1.987z"></path>
    </symbol>
    <symbol id="icon-currency-rub" viewBox="0 0 32 32">
      <path fill="#eb0a29" style="fill: var(--color108, #eb0a29)" d="M32 16c0 8.837-7.163 16-16 16s-16-7.163-16-16c0-8.837 7.163-16 16-16s16 7.163 16 16z"></path>
      <path fill="#fff" style="fill: var(--color16, #fff)" d="M13.413 17.88v2.12h5.987v1.6h-5.987v2.667h-2.827v-2.667h-1.56v-1.6h1.56v-2.12h-1.56v-2.227h1.56v-7.653h7.093c0.136-0.013 0.294-0.021 0.454-0.021 2.695 0 4.88 2.185 4.88 4.88 0 0.031-0 0.062-0.001 0.092l0-0.005c0 0.018 0 0.040 0 0.061 0 2.695-2.185 4.88-4.88 4.88-0.16 0-0.318-0.008-0.474-0.023l0.020 0.002zM13.413 15.653h3.92c1.421 0 2.573-1.152 2.573-2.573s-1.152-2.573-2.573-2.573h-3.92z"></path>
    </symbol>
    <symbol id="icon-currency-eur" viewBox="0 0 32 32">
      <path fill="#0f8ff8" style="fill: var(--color116, #0f8ff8)" d="M32 16c0 8.837-7.163 16-16 16s-16-7.163-16-16c0-8.837 7.163-16 16-16s16 7.163 16 16z"></path>
      <path fill="#fff" style="fill: var(--color16, #fff)" d="M20.293 19.587l2.427 1.24c-1.3 2.186-3.65 3.628-6.336 3.628-0.055 0-0.11-0.001-0.165-0.002l0.008 0c-0.095 0.004-0.206 0.006-0.318 0.006-3.667 0-6.771-2.411-7.813-5.735l-0.016-0.058h-1.253v-1.693h0.973c0-0.293 0-0.587 0-0.88s0-0.627 0-0.92h-0.973v-1.613h1.333c1.036-3.4 4.144-5.83 7.82-5.83 0.087 0 0.173 0.001 0.259 0.004l-0.013-0c0.031-0 0.068-0.001 0.104-0.001 2.69 0 5.041 1.448 6.317 3.607l0.019 0.034-2.427 1.24c-0.839-1.404-2.341-2.335-4.063-2.36l-0.004-0c-0.040-0.001-0.086-0.002-0.133-0.002-2.215 0-4.115 1.351-4.921 3.273l-0.013 0.035h6.547v1.613h-6.987c0 0.293 0 0.613 0 0.92s0 0.587 0 0.88h7v1.693h-6.533c0.812 1.972 2.719 3.335 4.945 3.335 0.052 0 0.104-0.001 0.156-0.002l-0.008 0c1.74-0.020 3.251-0.977 4.054-2.39l0.012-0.023z"></path>
    </symbol>
    <symbol id="icon-currency-gbp" viewBox="0 0 32 32">
      <path fill="#e647ff" style="fill: var(--color117, #e647ff)" d="M32 16c0 8.837-7.163 16-16 16s-16-7.163-16-16c0-8.837 7.163-16 16-16s16 7.163 16 16z"></path>
      <path fill="#fff" style="fill: var(--color16, #fff)" d="M10.987 15.253v-2.373c0-3.747 2.267-6.107 6.2-6.107 0.085-0.004 0.184-0.006 0.285-0.006 2.325 0 4.384 1.14 5.648 2.892l0.014 0.021-2.533 1.933c-0.727-1.128-1.968-1.87-3.383-1.893l-0.003-0c-0.020-0.001-0.044-0.001-0.068-0.001-1.569 0-2.84 1.271-2.84 2.84 0 0.141 0.010 0.28 0.030 0.416l-0.002-0.015v2.293h6.667v2.667h-6.667v4.427h8.747v2.76h-14.213v-1.987l2.12-0.627v-4.547h-2.12v-2.667z"></path>
    </symbol>
    <symbol id="icon-currency-jpy" viewBox="0 0 32 32">
      <path fill="#eac749" style="fill: var(--color110, #eac749)" d="M32 16c0 8.837-7.163 16-16 16s-16-7.163-16-16c0-8.837 7.163-16 16-16s16 7.163 16 16z"></path>
      <path fill="#000" style="fill: var(--color118, #000)" d="M18.493 15.84h4.707v1.627h-5.773v2.227h5.773v1.64h-5.773v2.853h-2.76v-2.853h-5.813v-1.64h5.813v-2.227h-5.813v-1.627h4.68l-5.213-7.84h3.24l4.44 6.947 4.44-6.947h3.24z"></path>
    </symbol>
    <symbol id="icon-currency-usd" viewBox="0 0 32 32">
      <path fill="#6cde07" style="fill: var(--color74, #6cde07)" d="M32 16c0 8.837-7.163 16-16 16s-16-7.163-16-16c0-8.837 7.163-16 16-16s16 7.163 16 16z"></path>
      <path fill="#1b3802" style="fill: var(--color119, #1b3802)" d="M17.173 24.44v2.227h-1.933v-2.213c-2.223-0.104-4.207-1.054-5.652-2.532l-0.002-0.002 1.573-2.187c1.056 1.115 2.46 1.891 4.038 2.154l0.042 0.006v-4.68c-2.493-0.627-5.147-1.547-5.147-4.707 0-2.467 2.013-4.427 5.147-4.693v-2.227h1.933v2.267c1.901 0.161 3.588 0.965 4.87 2.19l-0.003-0.003-1.613 2.107c-0.866-0.846-1.976-1.446-3.213-1.687l-0.040-0.006v4.213c2.52 0.68 5.24 1.627 5.24 4.88 0 2.413-1.6 4.547-5.24 4.893zM15.24 14.107v-3.773c-1.333 0.147-2.227 0.893-2.227 1.987s0.933 1.427 2.227 1.787zM19.52 19.76c0-1.12-0.987-1.627-2.347-2.040v4.173c1.68-0.24 2.347-1.213 2.347-2.133z"></path>
    </symbol>
    <symbol id="icon-currency-eos" viewBox="0 0 32 32">
      <path fill="#e7eaef" style="fill: var(--color120, #e7eaef)" d="M32 16c0 8.837-7.163 16-16 16s-16-7.163-16-16c0-8.837 7.163-16 16-16s16 7.163 16 16z"></path>
      <path fill="#231f20" style="fill: var(--color121, #231f20)" d="M16 28.25v0c-0.088-0.001-0.172-0.015-0.251-0.042l0.006 0.002c-0.056-0.020-0.103-0.044-0.148-0.072l0.003 0.002-7.665-4.595c-0.218-0.133-0.362-0.369-0.362-0.639 0-0.064 0.008-0.127 0.023-0.186l-0.001 0.005 2.685-11.12c0.021-0.093 0.060-0.175 0.111-0.247l-0.001 0.002 5-7.285c0.145-0.185 0.369-0.304 0.62-0.304s0.475 0.118 0.619 0.302l0.001 0.002 5 7.285c0.050 0.070 0.089 0.152 0.109 0.24l0.001 0.005 2.685 11.12c0.014 0.054 0.022 0.117 0.022 0.181 0 0.27-0.144 0.507-0.359 0.637l-0.003 0.002-7.705 4.595c-0.040 0.025-0.086 0.047-0.135 0.064l-0.005 0.002c-0.074 0.029-0.16 0.045-0.25 0.045-0 0-0 0-0 0h0zM20.79 14.19l-3.5 11.67 5.53-3.32zM9.19 22.54l5.53 3.32-3.5-11.67zM12 11.66l4 13.24 4-13.24-4-5.83z"></path>
    </symbol>
    <symbol id="icon-currency-bch" viewBox="0 0 32 32">
      <path fill="#8dc351" style="fill: var(--color159, #8dc351)" d="M32 16c0 8.837-7.163 16-16 16s-16-7.163-16-16c0-8.837 7.163-16 16-16s16 7.163 16 16z"></path>
      <path fill="#fff" style="fill: var(--color16, #fff)" d="M20.305 9.75c-1.070-1.83-3-1.705-5.19-0.92l-1.235-2.66-1.615 0.75 1.2 2.58-1.285 0.615-1.18-2.615-1.615 0.745 1.23 2.655c-0.345 0.17-0.69 0.34-1.025 0.5v0l-2.23 1.030 0.8 1.73s1.18-0.58 1.17-0.545c0.139-0.089 0.308-0.141 0.49-0.141 0.321 0 0.603 0.164 0.768 0.413l0.002 0.003 1.4 3.025 0.175-0.070-0.17 0.080 1.965 4.24c0.029 0.070 0.046 0.152 0.046 0.237 0 0.277-0.179 0.512-0.427 0.597l-0.004 0.001c0.030 0-1.175 0.545-1.175 0.545l0.57 2.080 2.105-0.975 1.16-0.525 1.265 2.67 1.615-0.745-1.23-2.66c0.445-0.195 0.875-0.39 1.295-0.585l1.225 2.645 1.595-0.75-1.24-2.7c2.645-1.415 4.23-3 3.285-5.64-0.76-2.145-2.155-2.615-3.865-2.27 0.715-0.89 0.91-2 0.125-3.34zM20.7 16.54c0.935 2-2.61 3.37-3.705 3.88l-1.645-3.56c1.095-0.505 4.385-2.415 5.35-0.32zM17.625 11.87c0.845 1.825-2.12 2.94-3.030 3.36l-1.495-3.23c0.9-0.42 3.645-2.035 4.525-0.13z"></path>
    </symbol>
    <symbol id="icon-currency-btc" viewBox="0 0 32 32">
      <path fill="#f7931a" style="fill: var(--color160, #f7931a)" d="M31.965 16.035c0 8.817-7.148 15.965-15.965 15.965s-15.965-7.148-15.965-15.965c0-8.817 7.148-15.965 15.965-15.965s15.965 7.148 15.965 15.965z"></path>
      <path fill="#fff" style="fill: var(--color16, #fff)" d="M23.175 14.060c0.31-2.090-1.28-3.215-3.46-3.965l0.705-2.835-1.72-0.43-0.7 2.76c-0.455-0.115-0.92-0.22-1.38-0.325l0.7-2.765-1.725-0.43-0.705 2.83c-0.375-0.085-0.745-0.17-1.1-0.26v0l-2.38-0.595-0.455 1.84s1.28 0.295 1.25 0.31c0.458 0.057 0.809 0.444 0.809 0.913 0 0.031-0.002 0.061-0.004 0.091l0-0.004-0.805 3.23c0.071 0.017 0.131 0.036 0.189 0.058l-0.009-0.003-0.18-0.045-1.13 4.5c-0.081 0.257-0.318 0.441-0.597 0.441-0.069 0-0.135-0.011-0.197-0.032l0.004 0.001s-1.255-0.31-1.255-0.31l-0.855 1.965 2.245 0.555 1.23 0.32-0.715 2.865 1.725 0.43 0.705-2.835c0.47 0.125 0.925 0.245 1.375 0.355l-0.705 2.825 1.725 0.43 0.71-2.86c2.945 0.555 5.155 0.33 6.085-2.33 0.75-2.14-0.035-3.375-1.585-4.18 1.13-0.24 1.975-0.985 2.205-2.515zM19.23 19.585c-0.53 2.145-4.135 1-5.305 0.695l0.945-3.78c1.17 0.275 4.92 0.855 4.36 3.085zM19.765 14.030c-0.5 1.95-3.5 0.955-4.46 0.715l0.86-3.44c0.97 0.24 4.105 0.695 3.6 2.725z"></path>
    </symbol>
    <symbol id="icon-currency-usdt" viewBox="0 0 44 44">
      <circle cx="22" cy="22" r="22" fill="#26a69a"/>
      <rect width="22" height="5" x="12" y="13" fill="#fff"/>
      <path fill="#fff" d="M24,21c-4.457,0-12,0.737-12,3.5S19.543,28,24,28s12-0.737,12-3.5S28.457,21,24,21z M24,26 c-5.523,0-10-0.895-10-2c0-1.105,4.477-2,10-2s10,0.895,10,2C34,25.105,29.523,26,24,26z"/>
      <path fill="#fff" d="M24,24c1.095,0,2.093-0.037,3-0.098V13h-6v10.902C21.907,23.963,22.905,24,24,24z"/>
      <path fill="#fff" d="M25.723,25.968c-0.111,0.004-0.223,0.007-0.336,0.01C24.932,25.991,24.472,26,24,26 s-0.932-0.009-1.387-0.021c-0.113-0.003-0.225-0.006-0.336-0.01c-0.435-0.015-0.863-0.034-1.277-0.06V36h6V25.908 C26.586,25.934,26.158,25.953,25.723,25.968z"/>
    </symbol>
    <symbol id="icon-currency-doge" viewBox="0 0 32 32">
      <path fill="#c2a633" style="fill: var(--color161, #c2a633)" d="M31.965 16.035c0 9.817-7.148 15.965-15.965 15.965s-15.965-7.148-15.965-15.965c0-8.817 7.148-15.965 15.965-15.965s15.965 7.148 15.965 15.965z"></path>
      <path fill="#fff" style="fill: var(--color16, #fff)" d="M15.605 6.5h-5.5v8.5h-2.255v2.085h2.255v8.5h6.395s9 0.755 9-9.395c0-9.985-8.595-9.69-9.895-9.69zM16.365 22.080h-2.65v-5h4v-2.080h-4v-5h2.5c0.945 0 5.7 0.38 5.71 6.25s-4.88 5.805-5.56 5.805z"></path>
    </symbol>
    <symbol id="icon-currency-eth" viewBox="0 0 32 32">
      <path fill="#627eea" style="fill: var(--color162, #627eea)" d="M32 16c0 8.837-7.163 16-16 16s-16-7.163-16-16c0-8.837 7.163-16 16-16s16 7.163 16 16z"></path>
      <path fill="#fff" style="fill: var(--color16, #fff)" opacity="0.6" d="M16.5 4v8.87l7.5 3.35z"></path>
      <path fill="#fff" style="fill: var(--color16, #fff)" d="M16.5 4l-7.5 12.22 7.5-3.35z"></path>
      <path fill="#fff" style="fill: var(--color16, #fff)" opacity="0.6" d="M16.5 21.97v6.030l7.5-10.385z"></path>
      <path fill="#fff" style="fill: var(--color16, #fff)" d="M16.5 28v-6.035l-7.5-4.35z"></path>
      <path fill="#fff" style="fill: var(--color16, #fff)" opacity="0.2" d="M16.5 20.575l7.5-4.355-7.5-3.35z"></path>
      <path fill="#fff" style="fill: var(--color16, #fff)" opacity="0.6" d="M9 16.22l7.5 4.355v-7.705z"></path>
    </symbol>
    <symbol id="icon-currency-ltc" viewBox="0 0 32 32">
      <path fill="#bfbbbb" style="fill: var(--color163, #bfbbbb)" d="M32 16c0 8.837-7.163 16-16 16s-16-7.163-16-16c0-8.837 7.163-16 16-16s16 7.163 16 16z"></path>
      <path fill="#fff" style="fill: var(--color16, #fff)" d="M10.425 19.215l-1.425 0.555 0.69-2.77 1.44-0.58 2.085-8.42h5.125l-1.5 6.195 1.41-0.57-0.68 2.75-1.43 0.57-0.845 3.5h7.705l-0.875 3.555h-12.875z"></path>
    </symbol>
    <symbol id="icon-currency-trx" viewBox="0 0 32 32">
      <path fill="#eb0a29" style="fill: var(--color108, #eb0a29)" d="M31.965 16.035c0 8.817-7.148 15.965-15.965 15.965s-15.965-7.148-15.965-15.965c0-8.817 7.148-15.965 15.965-15.965s15.965 7.148 15.965 15.965z"></path>
      <path fill="#fff" style="fill: var(--color16, #fff)" d="M6.355 7c0.215 0.064 0.474 0.119 0.74 0.152l0.025 0.003 15.215 2.785c0.078 0.010 0.147 0.045 0.2 0.095l-0-0 4.020 3.825c0.065 0.060 0.075 0.095 0 0.17q-1.68 2.035-3.35 4.075l-6.265 7.655-2.070 2.5-0.065 0.070-0.335-0.83q-1.945-4.88-3.88-9.76-2.090-5.275-4.205-10.565c-0.021-0.049-0.040-0.108-0.054-0.168l-0.001-0.007zM14.755 25.165h0.030c0.055-0.5 0.115-1 0.175-1.5 0.115-0.925 0.225-1.845 0.34-2.77 0.1-0.85 0.2-1.7 0.305-2.55s0.205-1.71 0.31-2.565c0.003-0.013 0.005-0.028 0.005-0.043 0-0.069-0.035-0.131-0.089-0.166l-0.001-0-7.22-6.005h-0.025zM15.915 25.225l8.545-10.41h-0.115l-3.345 0.62-3.895 0.7c-0.1 0-0.125 0.065-0.135 0.155 0 0.275-0.060 0.54-0.095 0.81-0.11 0.925-0.225 1.85-0.335 2.775s-0.205 1.71-0.31 2.565zM9.415 8.725v0.030l0.85 0.745 6.065 5c0.027 0.035 0.068 0.057 0.115 0.057s0.088-0.022 0.115-0.056l0-0q1.92-1.61 3.85-3.215l0.53-0.44zM17.95 14.82c0.15 0 6.5-1.145 6.665-1.2 0 0 0-0.035-0.035-0.050q-1.14-1.070-2.275-2.165c-0.105-0.1-0.155-0.085-0.255 0-0.95 0.8-1.91 1.595-2.865 2.39-0.4 0.335-0.805 0.67-1.235 1.025z"></path>
    </symbol>
    <symbol id="icon-currency-xrp" viewBox="0 0 32 32">
      <path fill="#5e5e5e" style="fill: var(--color164, #5e5e5e)" d="M31.965 16.035c0 8.817-7.148 15.965-15.965 15.965s-15.965-7.148-15.965-15.965c0-8.817 7.148-15.965 15.965-15.965s15.965 7.148 15.965 15.965z"></path>
      <path fill="#fff" style="fill: var(--color16, #fff)" d="M23.24 24.765l-2.5-2.47-2.28-2.26c-0.673-0.677-1.605-1.096-2.635-1.096s-1.962 0.419-2.635 1.096l-0 0-4.775 4.73h-3l0.435-0.45 1.5-1.5 3.435-3.4c0.41-0.405 0.81-0.825 1.245-1.2 0.819-0.728 1.865-1.218 3.019-1.353l0.026-0.002c0.236-0.034 0.509-0.054 0.786-0.054 1.453 0 2.779 0.54 3.791 1.43l-0.006-0.006c0.355 0.305 0.67 0.645 1 0.97l4.075 4.030 1.435 1.425c0.027 0.024 0.050 0.052 0.069 0.083l0.001 0.002z"></path>
      <path fill="#fff" style="fill: var(--color16, #fff)" d="M8.465 7.5l1.7 1.69c0.78 0.77 1.55 1.54 2.33 2.305 0.336 0.348 0.687 0.675 1.054 0.983l0.021 0.017c0.619 0.486 1.409 0.779 2.268 0.779 1.021 0 1.944-0.414 2.612-1.084l0-0c1.090-1.090 2.19-2.17 3.29-3.26l1.46-1.43h3l-0.34 0.36-3.185 3.14-2.77 2.74c-0.846 0.842-1.959 1.416-3.201 1.582l-0.029 0.003c-0.266 0.044-0.572 0.069-0.883 0.069-1.522 0-2.903-0.598-3.924-1.571l0.002 0.002c-0.555-0.5-1.075-1.050-1.61-1.58l-4.72-4.675c-0.025-0.025-0.045-0.055-0.070-0.085z"></path>
    </symbol>
    <symbol id="icon-currency-neo" viewBox="0 0 32 32">
      <polygon class="cls-1" points="0 64.6 0 311.1 160 368.5 160 120 333.1 56.2 176 0 0 64.6"/>
      <polygon class="cls-2" points="173.1 127.1 173.1 261.9 333.1 319.3 333.1 67.9 173.1 127.1"/>
    </symbol>
    <symbol id="icon-currency-bnb" viewBox="0 0 511.97 511.97">
      <path fill="#f7931a" style="fill: var(--color160, #f7931a)" class="cls-1" d="M156.56,215.14,256,115.71l99.47,99.47,57.86-57.85L256,0,98.71,157.28l57.85,57.85M0,256l57.86-57.87L115.71,256,57.85,313.83Zm156.56,40.85L256,396.27l99.47-99.47,57.89,57.82,0,0L256,512,98.71,354.7l-.08-.09,57.93-57.77M396.27,256l57.85-57.85L512,256l-57.85,57.85Z"/>
      <path fill="#f7931a" style="fill: var(--color160, #f7931a)" class="cls-1" d="M314.66,256h0L256,197.25,212.6,240.63h0l-5,5L197.33,255.9l-.08.08.08.08L256,314.72l58.7-58.7,0,0-.05,0"/>
    </symbol>
    <symbol id="icon-currency-bnb-bsc" viewBox="0 0 511.97 511.97">
      <path fill="#f7931a" style="fill: var(--color160, #f7931a)" class="cls-1" d="M156.56,215.14,256,115.71l99.47,99.47,57.86-57.85L256,0,98.71,157.28l57.85,57.85M0,256l57.86-57.87L115.71,256,57.85,313.83Zm156.56,40.85L256,396.27l99.47-99.47,57.89,57.82,0,0L256,512,98.71,354.7l-.08-.09,57.93-57.77M396.27,256l57.85-57.85L512,256l-57.85,57.85Z"/>
      <path fill="#f7931a" style="fill: var(--color160, #f7931a)" class="cls-1" d="M314.66,256h0L256,197.25,212.6,240.63h0l-5,5L197.33,255.9l-.08.08.08.08L256,314.72l58.7-58.7,0,0-.05,0"/>
    </symbol>
    <symbol id="icon-provider-live-casino" viewBox="0 0 32 32">
      <path d="M25.733 12.133c-0.884 0-1.6 0.716-1.6 1.6v0 4.427h-1.067c0.004-0.044 0.007-0.095 0.007-0.146 0-0.884-0.716-1.6-1.6-1.6s-1.6 0.716-1.6 1.6c0 0.051 0.002 0.102 0.007 0.152l-0-0.006h-1.067v-1.067c0-0.884-0.716-1.6-1.6-1.6s-1.6 0.716-1.6 1.6v0 1.067h-1.067v-8.573c0.004-0.044 0.007-0.095 0.007-0.146 0-0.884-0.716-1.6-1.6-1.6s-1.6 0.716-1.6 1.6c0 0.051 0.002 0.102 0.007 0.152l-0.001-0.006v13.787l-3.92-2.667c-0.286-0.209-0.644-0.334-1.032-0.334-0.972 0-1.76 0.788-1.76 1.76 0 0.484 0.196 0.923 0.512 1.241l-0-0 7.107 7.36c0.768 0.782 1.836 1.267 3.017 1.267 0.003 0 0.007 0 0.010 0h7.773c2.346-0.008 4.246-1.907 4.253-4.253v-14.014c0-0.004 0-0.009 0-0.013 0-0.876-0.71-1.587-1.587-1.587-0 0-0 0-0 0v0z"></path>
      <path d="M20.267 11.947l3.76-7.6h-3.76v-4.347l-3.76 7.067h3.76v4.88z"></path>
    </symbol>
    <symbol id="icon-provider-slots" viewBox="0 0 32 32">
      <path d="M18.933 15.693c-1.169 2.206-1.859 4.822-1.867 7.598v1.669h-6.293c0.014-2.753 0.627-5.36 1.714-7.701l-0.048 0.114c1.229-2.693 2.733-5.012 4.524-7.076l-0.030 0.036h-9.333v-4.88h16.4v2.587c-1.85 2.236-3.531 4.744-4.95 7.412l-0.117 0.241z"></path>
      <path d="M27.733 21.107c-0.964 1.213-1.665 2.679-1.989 4.281l-0.011 0.065-0.2 1-5.533-1.013c0.602-3.015 2.2-5.584 4.431-7.409l0.023-0.018-4-0.787 1.68-3.547 9.867 1.947-0.307 1.547c-1.46 1.196-2.757 2.485-3.922 3.887l-0.038 0.047z"></path>
      <path d="M8.227 19.427c-0.184 0.719-0.29 1.544-0.29 2.393s0.106 1.675 0.305 2.463l-0.015-0.069 0.24 1-5.427 1.333c-0.231-0.904-0.364-1.942-0.364-3.011 0-2.051 0.489-3.989 1.357-5.701l-0.033 0.072-4 0.947v-3.893l9.787-2.347 0.373 1.533c-0.761 1.505-1.422 3.262-1.893 5.096l-0.040 0.184z"></path>
    </symbol>
  </defs>
</svg>
