<?xml version="1.0" encoding="utf-8"?>
<!-- Generator: Adobe Illustrator 16.0.0, SVG Export Plug-In . SVG Version: 6.00 Build 0)  -->
<!DOCTYPE svg PUBLIC "-//W3C//DTD SVG 1.0//EN" "http://www.w3.org/TR/2001/REC-SVG-20010904/DTD/svg10.dtd">
<svg version="1.0" id="Layer_1" xmlns="http://www.w3.org/2000/svg" xmlns:xlink="http://www.w3.org/1999/xlink" x="0px" y="0px"
	 width="17.162px" height="10.225px" viewBox="0 0 17.162 10.225" enable-background="new 0 0 17.162 10.225" xml:space="preserve">
<g>
	<g>
		<g>
			<path fill="#F0A655" d="M16.362,1.6H0.8C0.358,1.6,0,1.242,0,0.8S0.358,0,0.8,0h15.563c0.441,0,0.8,0.358,0.8,0.8
				S16.804,1.6,16.362,1.6z"/>
		</g>
		<g>
			<path fill="#F0A655" d="M15.05,5.912H2.112c-0.442,0-0.8-0.358-0.8-0.8s0.358-0.8,0.8-0.8H15.05c0.441,0,0.8,0.358,0.8,0.8
				S15.491,5.912,15.05,5.912z"/>
		</g>
		<g>
			<path fill="#F0A655" d="M13.612,10.225H3.55c-0.442,0-0.8-0.358-0.8-0.801c0-0.441,0.358-0.799,0.8-0.799h10.063
				c0.441,0,0.8,0.357,0.8,0.799C14.412,9.867,14.054,10.225,13.612,10.225z"/>
		</g>
	</g>
</g>
</svg>
