<?xml version="1.0" encoding="utf-8"?>
<!-- Generator: Adobe Illustrator 16.0.0, SVG Export Plug-In . SVG Version: 6.00 Build 0)  -->
<!DOCTYPE svg PUBLIC "-//W3C//DTD SVG 1.0//EN" "http://www.w3.org/TR/2001/REC-SVG-20010904/DTD/svg10.dtd">
<svg version="1.0" id="Layer_1" xmlns="http://www.w3.org/2000/svg" xmlns:xlink="http://www.w3.org/1999/xlink" x="0px" y="0px"
	 width="20px" height="20px" viewBox="0 0 20 20" enable-background="new 0 0 20 20" xml:space="preserve">
<g>
	<path opacity="0.4" fill="#F0A655" d="M20,18.117C20,19.157,19.157,20,18.118,20H5.647c-1.04,0-1.882-0.843-1.882-1.883V5.96
		c0-1.04,0.843-1.882,1.882-1.882h12.471C19.157,4.078,20,4.921,20,5.96V18.117z"/>
	<path fill="#F0A655" d="M16.235,14.039c0,1.04-0.842,1.883-1.882,1.883H1.882C0.843,15.921,0,15.079,0,14.039V1.882
		C0,0.843,0.843,0,1.882,0h12.471c1.04,0,1.882,0.843,1.882,1.882V14.039z"/>
</g>
</svg>
