<?xml version="1.0" encoding="utf-8"?>
<!-- Generator: Adobe Illustrator 16.0.0, SVG Export Plug-In . SVG Version: 6.00 Build 0)  -->
<!DOCTYPE svg PUBLIC "-//W3C//DTD SVG 1.1//EN" "http://www.w3.org/Graphics/SVG/1.1/DTD/svg11.dtd">
<svg version="1.1" id="Layer_1" xmlns="http://www.w3.org/2000/svg" xmlns:xlink="http://www.w3.org/1999/xlink" x="0px" y="0px"
	 width="346.869px" height="365.699px" viewBox="0 0 346.869 365.699" enable-background="new 0 0 346.869 365.699"
	 xml:space="preserve">
<path fill="#EF9A3E" d="M342.747,189.063v-21.234l-145.4-153.583c-12.168-13.049-33.607-13.339-45.486,0
	S4.126,167.535,4.126,167.535v22.497L171.387,306.31L342.747,189.063z"/>
<path fill="#6C6D6D" d="M72.231,53.48h202.413c9.816,0,17.775,7.958,17.775,17.775v221.813c0,9.818-7.959,17.775-17.775,17.775
	H72.231c-9.817,0-17.775-7.957-17.775-17.775V71.256C54.455,61.437,62.414,53.48,72.231,53.48z"/>
<linearGradient id="SVGID_1_" gradientUnits="userSpaceOnUse" x1="-260.9719" y1="654.594" x2="-554.5278" y2="243.713" gradientTransform="matrix(1 0 0 -1 538.3164 691.3208)">
	<stop  offset="0.368" style="stop-color:#E7E7E7"/>
	<stop  offset="0.714" style="stop-color:#CDECF7"/>
</linearGradient>
<path fill="url(#SVGID_1_)" d="M72.231,53.48h202.413c9.816,0,17.775,7.958,17.775,17.775v221.813
	c0,9.818-7.959,17.775-17.775,17.775H72.231c-9.817,0-17.775-7.957-17.775-17.775V71.256C54.455,61.437,62.414,53.48,72.231,53.48z"
	/>
<linearGradient id="SVGID_2_" gradientUnits="userSpaceOnUse" x1="-364.8796" y1="525.1858" x2="-364.8796" y2="321.2742" gradientTransform="matrix(1 0 0 -1 538.3164 691.3208)">
	<stop  offset="0.336" style="stop-color:#E7E7E7"/>
	<stop  offset="0.741" style="stop-color:#E7E7E7"/>
	<stop  offset="0.865" style="stop-color:#D7D7D7"/>
	<stop  offset="0.917" style="stop-color:#C8C7C7"/>
	<stop  offset="0.975" style="stop-color:#F3F3F3"/>
</linearGradient>
<path fill="url(#SVGID_2_)" d="M342.747,166.615c-0.075,54.61-0.184,109.224-0.218,163.833
	c-0.013,17.077-13.769,30.916-30.848,30.896c-73.822-0.08-214.305-0.185-276.261-0.231c-17.011-0.012-30.697-13.774-30.754-30.787
	L4.126,166.135l169.202,122.107L342.747,166.615L342.747,166.615z"/>
<linearGradient id="SVGID_3_" gradientUnits="userSpaceOnUse" x1="-356.2712" y1="449.8186" x2="-413.7373" y2="371.5617" gradientTransform="matrix(1 0 0 -1 538.3164 691.3208)">
	<stop  offset="0.416" style="stop-color:#DFDFDE;stop-opacity:0"/>
	<stop  offset="0.444" style="stop-color:#FFFFFF"/>
	<stop  offset="0.622" style="stop-color:#FFFFFF;stop-opacity:0"/>
</linearGradient>
<path fill="url(#SVGID_3_)" d="M342.747,166.615c-0.075,54.61-0.184,109.224-0.218,163.833
	c-0.013,17.077-13.769,30.916-30.848,30.896c-73.822-0.08-214.305-0.185-276.261-0.231c-17.011-0.012-30.697-13.774-30.754-30.787
	L4.126,166.135l169.202,122.107L342.747,166.615L342.747,166.615z"/>
<linearGradient id="SVGID_4_" gradientUnits="userSpaceOnUse" x1="-364.8796" y1="525.1858" x2="-364.8796" y2="321.2742" gradientTransform="matrix(1 0 0 -1 538.3164 691.3208)">
	<stop  offset="0.503" style="stop-color:#E7E7E7;stop-opacity:0"/>
	<stop  offset="0.627" style="stop-color:#E7E7E7"/>
	<stop  offset="0.775" style="stop-color:#E7E7E7"/>
	<stop  offset="0.865" style="stop-color:#D7D7D7"/>
	<stop  offset="0.917" style="stop-color:#C8C7C7"/>
	<stop  offset="0.975" style="stop-color:#F3F3F3"/>
</linearGradient>
<path fill="url(#SVGID_4_)" d="M342.747,166.615c-0.075,54.61-0.184,109.224-0.218,163.833
	c-0.013,17.077-13.769,30.916-30.848,30.896c-73.822-0.08-214.305-0.185-276.261-0.231c-17.011-0.012-30.697-13.774-30.754-30.787
	L4.126,166.135l169.202,122.107L342.747,166.615L342.747,166.615z"/>
<linearGradient id="SVGID_5_" gradientUnits="userSpaceOnUse" x1="-377.5847" y1="455.5618" x2="-310.2104" y2="363.4573" gradientTransform="matrix(1 0 0 -1 538.3164 691.3208)">
	<stop  offset="0.416" style="stop-color:#DFDFDE;stop-opacity:0"/>
	<stop  offset="0.444" style="stop-color:#FFFFFF"/>
	<stop  offset="0.588" style="stop-color:#FFFFFF;stop-opacity:0"/>
</linearGradient>
<path fill="url(#SVGID_5_)" d="M342.747,166.615c-0.075,54.61-0.184,109.224-0.218,163.833
	c-0.013,17.077-13.769,30.916-30.848,30.896c-73.822-0.08-214.305-0.185-276.261-0.231c-17.011-0.012-30.697-13.774-30.754-30.787
	L4.126,166.135l169.202,122.107L342.747,166.615L342.747,166.615z"/>
<linearGradient id="SVGID_6_" gradientUnits="userSpaceOnUse" x1="-364.8796" y1="525.1858" x2="-364.8796" y2="321.2742" gradientTransform="matrix(1 0 0 -1 538.3164 691.3208)">
	<stop  offset="0.79" style="stop-color:#E0E0DF;stop-opacity:0"/>
	<stop  offset="0.917" style="stop-color:#C8C7C7"/>
	<stop  offset="0.975" style="stop-color:#F3F3F3"/>
</linearGradient>
<path fill="url(#SVGID_6_)" d="M342.747,166.615c-0.075,54.61-0.184,109.224-0.218,163.833
	c-0.013,17.077-13.769,30.916-30.848,30.896c-73.822-0.08-214.305-0.185-276.261-0.231c-17.011-0.012-30.697-13.774-30.754-30.787
	L4.126,166.135l169.202,122.107L342.747,166.615L342.747,166.615z"/>
<linearGradient id="SVGID_7_" gradientUnits="userSpaceOnUse" x1="-398.4207" y1="427.5754" x2="-541.5421" y2="427.5755" gradientTransform="matrix(1 0 0 -1 538.3164 691.3208)">
	<stop  offset="0.835" style="stop-color:#D7D7D7;stop-opacity:0"/>
	<stop  offset="0.912" style="stop-color:#BCBCBC"/>
	<stop  offset="1" style="stop-color:#F3F3F3"/>
</linearGradient>
<path fill="url(#SVGID_7_)" fill-opacity="0.8" d="M342.747,166.615c-0.075,54.61-0.184,109.224-0.218,163.833
	c-0.013,17.077-13.769,30.916-30.848,30.896c-73.822-0.08-214.305-0.185-276.261-0.231c-17.011-0.012-30.697-13.774-30.754-30.787
	L4.126,166.135l169.202,122.107L342.747,166.615L342.747,166.615z"/>
</svg>
