<?xml version="1.0" encoding="utf-8"?>
<!-- Generator: Adobe Illustrator 16.0.0, SVG Export Plug-In . SVG Version: 6.00 Build 0)  -->
<!DOCTYPE svg PUBLIC "-//W3C//DTD SVG 1.0//EN" "http://www.w3.org/TR/2001/REC-SVG-20010904/DTD/svg10.dtd">
<svg version="1.0" id="Layer_1" xmlns="http://www.w3.org/2000/svg" xmlns:xlink="http://www.w3.org/1999/xlink" x="0px" y="0px"
	 width="9.449px" height="10.868px" viewBox="0 0 9.449 10.868" enable-background="new 0 0 9.449 10.868" xml:space="preserve">
<path d="M3.665,10.868c-0.022,0-0.043,0-0.065-0.001c-0.913-0.019-1.755-0.445-2.503-1.265c-1.834-2.011-0.968-3.865-0.254-4.564
	l4.398-4.38C5.326,0.577,6.02-0.04,6.983,0.002c0.658,0.027,1.265,0.34,1.804,0.933c1.194,1.313,0.511,2.748-0.019,3.322
	L4.887,8.222C4.453,8.648,3.533,8.982,2.746,8.194c-0.43-0.431-0.514-0.856-0.508-1.138c0.012-0.59,0.41-0.974,0.456-1.017
	l3.213-3.247C6.122,2.578,6.47,2.575,6.686,2.789C6.902,3.002,6.903,3.351,6.69,3.566L3.458,6.832
	c-0.257,0.26-0.022,0.496,0.066,0.584c0.073,0.072,0.293,0.293,0.591,0.021L7.969,3.5c0.125-0.142,0.785-0.967,0.004-1.824
	C7.639,1.31,7.292,1.115,6.939,1.102c-0.536,0-0.931,0.344-0.935,0.348L1.615,5.821C1.483,5.954,0.372,7.174,1.909,8.86
	c0.529,0.58,1.097,0.886,1.688,0.906C4.395,9.808,4.994,9.293,5,9.287c0.205-0.204,3.659-3.709,3.659-3.709l0.783,0.772
	c0,0-3.459,3.51-3.666,3.716C5.552,10.292,4.741,10.868,3.665,10.868z"/>
</svg>
