<?xml version="1.0" encoding="utf-8"?>
<!-- Generator: Adobe Illustrator 16.0.0, SVG Export Plug-In . SVG Version: 6.00 Build 0)  -->
<!DOCTYPE svg PUBLIC "-//W3C//DTD SVG 1.0//EN" "http://www.w3.org/TR/2001/REC-SVG-20010904/DTD/svg10.dtd">
<svg version="1.0" id="Layer_1" xmlns="http://www.w3.org/2000/svg" xmlns:xlink="http://www.w3.org/1999/xlink" x="0px" y="0px"
	 width="8.636px" height="9.932px" viewBox="0 0 8.636 9.932" enable-background="new 0 0 8.636 9.932" xml:space="preserve">
<g>
	<g>
		<path d="M1.45,8.342V1.59c0-0.532-0.091-0.881-0.275-1.044C0.993,0.382,0.601,0.296,0,0.285V0h2.212h1.985
			C5.5,0,6.481,0.205,7.142,0.615C7.8,1.025,8.13,1.639,8.13,2.453c0,0.782-0.269,1.37-0.806,1.766
			c-0.317,0.234-0.735,0.398-1.253,0.49c0.602,0.117,1.097,0.296,1.487,0.535c0.718,0.449,1.077,1.118,1.077,2.007
			S8.294,8.809,7.614,9.258C6.933,9.707,5.918,9.932,4.57,9.932H2.212H0V9.646c0.601-0.01,0.994-0.098,1.179-0.264
			C1.36,9.221,1.45,8.875,1.45,8.342z M2.981,1.193v3.268h1.355c0.762,0,1.328-0.154,1.699-0.462s0.557-0.778,0.557-1.413
			c0-0.689-0.226-1.2-0.677-1.535C5.462,0.717,4.771,0.549,3.838,0.549l-0.33,0.016c-0.21,0.01-0.352,0.056-0.425,0.139
			C3.015,0.786,2.981,0.95,2.981,1.193z M2.981,8.599c0,0.308,0.045,0.514,0.136,0.619C3.207,9.322,3.389,9.38,3.662,9.39
			l0.264,0.007c1.011,0,1.763-0.178,2.256-0.534s0.739-0.903,0.739-1.641S6.655,5.938,6.123,5.581S4.778,5.047,3.684,5.047H2.981
			V8.599z"/>
	</g>
</g>
</svg>
