<?xml version="1.0" encoding="utf-8"?>
<!-- Generator: Adobe Illustrator 16.0.0, SVG Export Plug-In . SVG Version: 6.00 Build 0)  -->
<!DOCTYPE svg PUBLIC "-//W3C//DTD SVG 1.0//EN" "http://www.w3.org/TR/2001/REC-SVG-20010904/DTD/svg10.dtd">
<svg version="1.0" id="Layer_1" xmlns="http://www.w3.org/2000/svg" xmlns:xlink="http://www.w3.org/1999/xlink" x="0px" y="0px"
	 width="595.28px" height="841.89px" viewBox="0 0 595.28 841.89" enable-background="new 0 0 595.28 841.89" xml:space="preserve">
<g>
	<path fill="#F0A655" d="M294.455,425.104v-6.752c0-0.532-0.091-0.881-0.275-1.044c-0.183-0.164-0.575-0.25-1.175-0.261v-0.285
		h2.212h1.985c1.304,0,2.285,0.205,2.945,0.615c0.658,0.41,0.988,1.023,0.988,1.838c0,0.782-0.269,1.37-0.806,1.766
		c-0.317,0.234-0.735,0.398-1.253,0.49c0.602,0.117,1.097,0.296,1.487,0.535c0.718,0.449,1.077,1.118,1.077,2.007
		s-0.342,1.558-1.021,2.007c-0.682,0.449-1.696,0.674-3.044,0.674h-2.358h-2.212v-0.285c0.601-0.01,0.994-0.098,1.179-0.264
		C294.365,425.982,294.455,425.637,294.455,425.104z M295.986,417.955v3.268h1.355c0.762,0,1.328-0.154,1.699-0.462
		s0.557-0.778,0.557-1.413c0-0.689-0.226-1.2-0.677-1.535c-0.452-0.334-1.144-0.502-2.077-0.502l-0.33,0.016
		c-0.21,0.01-0.352,0.056-0.425,0.139C296.02,417.548,295.986,417.712,295.986,417.955z M295.986,425.36
		c0,0.308,0.045,0.514,0.136,0.619c0.09,0.104,0.272,0.162,0.545,0.172l0.264,0.007c1.011,0,1.763-0.178,2.256-0.534
		s0.739-0.903,0.739-1.641s-0.266-1.284-0.798-1.641s-1.345-0.534-2.439-0.534h-0.703V425.36z"/>
</g>
</svg>
