<?xml version="1.0" encoding="utf-8"?>
<!-- Generator: Adobe Illustrator 16.0.0, SVG Export Plug-In . SVG Version: 6.00 Build 0)  -->
<!DOCTYPE svg PUBLIC "-//W3C//DTD SVG 1.0//EN" "http://www.w3.org/TR/2001/REC-SVG-20010904/DTD/svg10.dtd">
<svg version="1.0" id="Layer_1" xmlns="http://www.w3.org/2000/svg" xmlns:xlink="http://www.w3.org/1999/xlink" x="0px" y="0px"
	 width="13.133px" height="10.233px" viewBox="0 0 13.133 10.233" enable-background="new 0 0 13.133 10.233" xml:space="preserve">
<g>
	<path fill="#F0A655" d="M3.743,8.589c-0.42,0.428-1.082,0.46-1.475,0.071L1.582,7.987C1.188,7.599,1.21,6.937,1.63,6.511
		l3.854-3.917c0.42-0.427,1.081-0.459,1.475-0.072l0.686,0.676c0.394,0.387,0.373,1.05-0.047,1.475l-1.56,1.585
		c-0.252,0.257-0.249,0.67,0.007,0.921c0.256,0.252,0.668,0.249,0.92-0.007l1.56-1.585C9.449,4.648,9.463,3.161,8.559,2.27
		L7.872,1.594C6.967,0.704,5.48,0.742,4.557,1.681L0.702,5.598c-0.923,0.938-0.938,2.425-0.034,3.315l0.687,0.676
		C2.26,10.48,3.747,10.442,4.67,9.503c0.252-0.256,0.249-0.669-0.007-0.92C4.407,8.331,3.995,8.333,3.743,8.589z"/>
	<path fill="#F0A655" d="M12.464,1.319l-0.687-0.675C10.873-0.247,9.385-0.208,8.463,0.73C8.21,0.986,8.213,1.398,8.469,1.65
		c0.257,0.252,0.67,0.249,0.922-0.007c0.419-0.427,1.08-0.459,1.474-0.071l0.687,0.676c0.393,0.386,0.371,1.048-0.048,1.475
		L7.648,7.639C7.229,8.066,6.567,8.097,6.173,7.71L5.487,7.036C5.094,6.647,5.115,5.986,5.535,5.56l1.56-1.586
		c0.252-0.256,0.249-0.668-0.007-0.92c-0.256-0.251-0.668-0.248-0.92,0.008l-1.56,1.585C3.684,5.584,3.669,7.073,4.574,7.962
		l0.687,0.677c0.905,0.89,2.391,0.851,3.314-0.087l3.855-3.917C13.354,3.697,13.369,2.209,12.464,1.319z"/>
</g>
</svg>
