<?xml version="1.0" encoding="utf-8"?>
<!-- Generator: Adobe Illustrator 16.0.0, SVG Export Plug-In . SVG Version: 6.00 Build 0)  -->
<!DOCTYPE svg PUBLIC "-//W3C//DTD SVG 1.0//EN" "http://www.w3.org/TR/2001/REC-SVG-20010904/DTD/svg10.dtd">
<svg version="1.0" id="Layer_1" xmlns="http://www.w3.org/2000/svg" xmlns:xlink="http://www.w3.org/1999/xlink" x="0px" y="0px"
	 width="13.133px" height="10.233px" viewBox="0 0 13.133 10.233" enable-background="new 0 0 13.133 10.233" xml:space="preserve">
<g>
	<g>
		<path d="M3.74,8.589c-0.42,0.428-1.082,0.46-1.475,0.071L1.579,7.987c-0.394-0.388-0.372-1.05,0.048-1.476l3.854-3.917
			c0.42-0.427,1.081-0.459,1.475-0.072l0.686,0.676c0.394,0.387,0.373,1.05-0.047,1.475l-1.56,1.585
			c-0.252,0.257-0.249,0.67,0.007,0.921C6.299,7.43,6.71,7.427,6.962,7.171l1.56-1.585C9.446,4.648,9.46,3.161,8.556,2.27
			L7.869,1.594C6.964,0.704,5.478,0.742,4.554,1.681L0.699,5.598c-0.923,0.938-0.938,2.425-0.034,3.315l0.687,0.676
			c0.905,0.891,2.392,0.853,3.315-0.086C4.92,9.248,4.917,8.834,4.66,8.583C4.404,8.331,3.992,8.333,3.74,8.589z"/>
		<path d="M12.461,1.319l-0.687-0.675C10.87-0.247,9.382-0.208,8.46,0.73C8.207,0.986,8.21,1.398,8.466,1.65
			c0.257,0.252,0.67,0.249,0.922-0.007c0.419-0.427,1.08-0.459,1.474-0.071l0.687,0.676c0.393,0.386,0.371,1.048-0.048,1.475
			L7.645,7.639C7.226,8.066,6.564,8.097,6.17,7.71L5.484,7.036C5.091,6.647,5.112,5.986,5.532,5.56l1.56-1.586
			c0.252-0.256,0.249-0.668-0.007-0.92c-0.256-0.251-0.668-0.248-0.92,0.008l-1.56,1.585C3.681,5.584,3.667,7.073,4.571,7.962
			l0.687,0.677c0.905,0.89,2.391,0.851,3.314-0.087l3.855-3.917C13.351,3.697,13.366,2.209,12.461,1.319z"/>
	</g>
</g>
</svg>
