<?xml version="1.0" encoding="utf-8"?>
<!-- Generator: Adobe Illustrator 16.0.0, SVG Export Plug-In . SVG Version: 6.00 Build 0)  -->
<!DOCTYPE svg PUBLIC "-//W3C//DTD SVG 1.0//EN" "http://www.w3.org/TR/2001/REC-SVG-20010904/DTD/svg10.dtd">
<svg version="1.0" id="Layer_1" xmlns="http://www.w3.org/2000/svg" xmlns:xlink="http://www.w3.org/1999/xlink" x="0px" y="0px"
	 width="1.987px" height="9.961px" viewBox="0 0 1.987 9.961" enable-background="new 0 0 1.987 9.961" xml:space="preserve">
<g>
	<path fill="#ED1C24" d="M0.27,5.632L0.059,2.48C0.02,1.866,0,1.426,0,1.158c0-0.364,0.095-0.647,0.286-0.852S0.728,0,1.04,0
		c0.377,0,0.629,0.131,0.756,0.392c0.127,0.262,0.191,0.638,0.191,1.129c0,0.289-0.016,0.583-0.046,0.881L1.658,5.646
		C1.627,6.031,1.562,6.327,1.46,6.533s-0.268,0.31-0.5,0.31c-0.237,0-0.401-0.1-0.493-0.3C0.375,6.344,0.309,6.04,0.27,5.632z
		 M1,9.961c-0.268,0-0.501-0.087-0.701-0.26C0.1,9.527,0,9.285,0,8.974C0,8.702,0.095,8.471,0.286,8.28
		C0.477,8.089,0.71,7.994,0.987,7.994S1.499,8.089,1.694,8.28c0.195,0.19,0.293,0.422,0.293,0.693c0,0.308-0.099,0.549-0.296,0.724
		C1.493,9.873,1.263,9.961,1,9.961z"/>
</g>
</svg>
