<?xml version="1.0" encoding="utf-8"?>
<!-- Generator: Adobe Illustrator 16.0.0, SVG Export Plug-In . SVG Version: 6.00 Build 0)  -->
<!DOCTYPE svg PUBLIC "-//W3C//DTD SVG 1.0//EN" "http://www.w3.org/TR/2001/REC-SVG-20010904/DTD/svg10.dtd">
<svg version="1.0" id="Layer_1" xmlns="http://www.w3.org/2000/svg" xmlns:xlink="http://www.w3.org/1999/xlink" x="0px" y="0px"
	 width="9.833px" height="9.832px" viewBox="0 0 9.833 9.832" enable-background="new 0 0 9.833 9.832" xml:space="preserve">
<path fill="#F0A655" d="M4.917,0C2.201,0,0,2.201,0,4.916s2.201,4.916,4.917,4.916c2.715,0,4.917-2.201,4.917-4.916S7.632,0,4.917,0
	z M4.906,8.117c-0.38,0-0.688-0.309-0.688-0.688c0-0.381,0.308-0.688,0.688-0.688S5.594,7.049,5.594,7.43
	C5.594,7.809,5.286,8.117,4.906,8.117z M5.208,5.449c0,0-0.078,0.344-0.297,0.344S4.614,5.449,4.614,5.449s-0.563-1.891-0.5-2.75
	s0.609-0.984,0.781-0.984c0,0,0.828,0.016,0.828,0.984S5.208,5.449,5.208,5.449z"/>
</svg>
