<?xml version="1.0" encoding="utf-8"?>
<!-- Generator: Adobe Illustrator 16.0.0, SVG Export Plug-In . SVG Version: 6.00 Build 0)  -->
<!DOCTYPE svg PUBLIC "-//W3C//DTD SVG 1.0//EN" "http://www.w3.org/TR/2001/REC-SVG-20010904/DTD/svg10.dtd">
<svg version="1.0" id="Layer_1" xmlns="http://www.w3.org/2000/svg" xmlns:xlink="http://www.w3.org/1999/xlink" x="0px" y="0px"
	 width="5.891px" height="9.793px" viewBox="0 0 5.891 9.793" enable-background="new 0 0 5.891 9.793" xml:space="preserve">
<g>
	<path d="M1.252,8.408l1.816-6.643c0.176-0.63,0.2-1.036,0.073-1.22c-0.127-0.183-0.5-0.284-1.121-0.304L2.087,0h1.898h1.905
		L5.824,0.242C5.453,0.281,5.192,0.373,5.041,0.517C4.89,0.661,4.756,0.95,4.639,1.385L2.814,8.027
		c-0.171,0.631-0.193,1.037-0.066,1.22c0.127,0.184,0.5,0.285,1.121,0.304L3.803,9.793H1.905H0l0.066-0.242
		C0.437,9.513,0.698,9.42,0.85,9.273C1.001,9.132,1.135,8.844,1.252,8.408z"/>
</g>
</svg>
