<?xml version="1.0" encoding="utf-8"?>
<!-- Generator: Adobe Illustrator 16.0.0, SVG Export Plug-In . SVG Version: 6.00 Build 0)  -->
<!DOCTYPE svg PUBLIC "-//W3C//DTD SVG 1.0//EN" "http://www.w3.org/TR/2001/REC-SVG-20010904/DTD/svg10.dtd">
<svg version="1.0" id="Layer_1" xmlns="http://www.w3.org/2000/svg" xmlns:xlink="http://www.w3.org/1999/xlink" x="0px" y="0px"
	 width="10.099px" height="12.101px" viewBox="0 0 10.099 12.101" enable-background="new 0 0 10.099 12.101" xml:space="preserve">
<g>
	<path fill="#231F20" d="M10.099,6.038L6.128,2.692v1.949H3.385c-0.323,0-0.584,0.262-0.584,0.585v1.624
		c0,0.323,0.261,0.585,0.584,0.585h2.743v1.95L10.099,6.038z"/>
	<path fill="#231F20" d="M8.544,10.523c0,0.419-0.341,0.759-0.76,0.759H1.578c-0.419,0-0.76-0.34-0.76-0.759V1.577
		c0-0.418,0.341-0.759,0.76-0.759h6.207c0.419,0,0.76,0.341,0.76,0.759v1.468l0.818,0.672v-2.14C9.362,0.708,8.654,0,7.784,0H1.578
		C0.708,0,0,0.708,0,1.577v8.946c0,0.869,0.708,1.577,1.578,1.577h6.207c0.87,0,1.578-0.708,1.578-1.577v-2.23L8.544,8.981V10.523z"
		/>
</g>
</svg>
