<?xml version="1.0" encoding="utf-8"?>
<!-- Generator: Adobe Illustrator 16.0.0, SVG Export Plug-In . SVG Version: 6.00 Build 0)  -->
<!DOCTYPE svg PUBLIC "-//W3C//DTD SVG 1.0//EN" "http://www.w3.org/TR/2001/REC-SVG-20010904/DTD/svg10.dtd">
<svg version="1.0" id="Layer_1" xmlns="http://www.w3.org/2000/svg" xmlns:xlink="http://www.w3.org/1999/xlink" x="0px" y="0px"
	 width="25px" height="24px" viewBox="0 0 25 24" enable-background="new 0 0 25 24" xml:space="preserve">
<path fill="#F27375" d="M25,19c0,2.762-2.238,5-5,5H5c-2.762,0-5-2.238-5-5V5c0-2.762,2.238-5,5-5h15c2.762,0,5,2.238,5,5V19z"/>
<path fill="#F38081" d="M20.75,16.73c0,1.85-1.5,3.35-3.35,3.35H7.35C5.5,20.08,4,18.58,4,16.73V7.35C4,5.5,5.5,4,7.35,4H17.4
	c1.85,0,3.35,1.5,3.35,3.35V16.73z"/>
</svg>
