<?xml version="1.0" encoding="utf-8"?>
<!-- Generator: Adobe Illustrator 16.0.0, SVG Export Plug-In . SVG Version: 6.00 Build 0)  -->
<!DOCTYPE svg PUBLIC "-//W3C//DTD SVG 1.0//EN" "http://www.w3.org/TR/2001/REC-SVG-20010904/DTD/svg10.dtd">
<svg version="1.0" id="Layer_1" xmlns="http://www.w3.org/2000/svg" xmlns:xlink="http://www.w3.org/1999/xlink" x="0px" y="0px"
	 width="25px" height="24px" viewBox="0 0 25 24" enable-background="new 0 0 25 24" xml:space="preserve">
<path fill="#EFC455" d="M25,19c0,2.762-2.238,5-5,5H5c-2.762,0-5-2.238-5-5V5c0-2.762,2.238-5,5-5h15c2.762,0,5,2.238,5,5V19z"/>
<path fill="#EFA654" d="M21,16.65C21,18.5,19.5,20,17.65,20H7.35C5.5,20,4,18.5,4,16.65V7.35C4,5.5,5.5,4,7.35,4H17.65
	C19.5,4,21,5.5,21,7.35V16.65z"/>
</svg>
