<?xml version="1.0" encoding="utf-8"?>
<!-- Generator: Adobe Illustrator 16.0.0, SVG Export Plug-In . SVG Version: 6.00 Build 0)  -->
<!DOCTYPE svg PUBLIC "-//W3C//DTD SVG 1.0//EN" "http://www.w3.org/TR/2001/REC-SVG-20010904/DTD/svg10.dtd">
<svg version="1.0" id="Layer_1" xmlns="http://www.w3.org/2000/svg" xmlns:xlink="http://www.w3.org/1999/xlink" x="0px" y="0px"
	 width="10.929px" height="12.035px" viewBox="0 0 10.929 12.035" enable-background="new 0 0 10.929 12.035" xml:space="preserve">
<rect x="3.179" y="1.02" fill="#F0A655" width="7.75" height="0.773"/>
<rect x="3.179" y="5.615" fill="#F0A655" width="7.75" height="0.773"/>
<rect x="3.179" y="10.216" fill="#F0A655" width="7.75" height="0.775"/>
<g>
	<path fill="#F0A655" d="M1.443,2.814H0.906V0.789c-0.196,0.184-0.428,0.32-0.694,0.408V0.709c0.141-0.047,0.292-0.133,0.457-0.262
		C0.833,0.32,0.946,0.17,1.007,0h0.436V2.814z"/>
</g>
<g>
	<path fill="#F0A655" d="M1.883,6.91v0.498H0c0.02-0.188,0.082-0.367,0.184-0.535c0.102-0.17,0.303-0.395,0.604-0.672
		c0.242-0.227,0.391-0.379,0.445-0.459c0.074-0.111,0.111-0.221,0.111-0.33c0-0.119-0.032-0.211-0.097-0.275S1.094,5.039,0.98,5.039
		c-0.112,0-0.202,0.035-0.268,0.102C0.646,5.209,0.608,5.32,0.598,5.479L0.063,5.424c0.032-0.295,0.132-0.508,0.3-0.637
		c0.168-0.129,0.378-0.193,0.631-0.193c0.276,0,0.494,0.074,0.652,0.225c0.158,0.148,0.237,0.334,0.237,0.557
		c0,0.125-0.023,0.246-0.068,0.359C1.77,5.85,1.698,5.969,1.6,6.094C1.535,6.176,1.417,6.295,1.248,6.451
		C1.079,6.605,0.971,6.709,0.926,6.76s-0.082,0.102-0.11,0.15H1.883z"/>
</g>
<g>
	<path fill="#F0A655" d="M0.049,11.243l0.52-0.063c0.017,0.133,0.061,0.233,0.134,0.304s0.161,0.105,0.264,0.105
		c0.111,0,0.204-0.042,0.28-0.126c0.076-0.085,0.114-0.198,0.114-0.341c0-0.135-0.037-0.242-0.109-0.321
		c-0.073-0.079-0.162-0.118-0.266-0.118c-0.069,0-0.151,0.013-0.247,0.04l0.06-0.438c0.145,0.004,0.256-0.027,0.333-0.094
		c0.077-0.067,0.115-0.156,0.115-0.268c0-0.094-0.028-0.169-0.084-0.226C1.106,9.643,1.031,9.614,0.938,9.614
		c-0.092,0-0.17,0.032-0.235,0.096S0.599,9.867,0.584,9.989L0.089,9.905c0.034-0.17,0.086-0.305,0.156-0.406S0.412,9.317,0.536,9.26
		C0.66,9.202,0.799,9.173,0.954,9.173c0.264,0,0.475,0.084,0.635,0.252C1.72,9.563,1.785,9.719,1.785,9.892
		c0,0.246-0.134,0.442-0.403,0.589c0.161,0.034,0.289,0.111,0.385,0.231s0.145,0.265,0.145,0.435c0,0.245-0.09,0.455-0.27,0.629
		c-0.18,0.173-0.403,0.26-0.671,0.26c-0.254,0-0.464-0.073-0.631-0.219C0.173,11.67,0.076,11.479,0.049,11.243z"/>
</g>
</svg>
