<?xml version="1.0" encoding="utf-8"?>
<!-- Generator: Adobe Illustrator 16.0.0, SVG Export Plug-In . SVG Version: 6.00 Build 0)  -->
<!DOCTYPE svg PUBLIC "-//W3C//DTD SVG 1.0//EN" "http://www.w3.org/TR/2001/REC-SVG-20010904/DTD/svg10.dtd">
<svg version="1.0" id="Layer_1" xmlns="http://www.w3.org/2000/svg" xmlns:xlink="http://www.w3.org/1999/xlink" x="0px" y="0px"
	 width="12px" height="12px" viewBox="0 0 12 12" enable-background="new 0 0 12 12" xml:space="preserve">
<g>
	<path fill="#231F20" d="M6,0C2.692,0,0,2.691,0,6s2.692,6,6,6s6-2.691,6-6S9.308,0,6,0z M9.747,9.423
		c-0.691-0.806-2.115-1.36-3.761-1.36c-1.635,0-3.052,0.546-3.747,1.343C1.421,8.504,0.923,7.309,0.923,6
		C0.923,3.2,3.2,0.924,6,0.924c2.799,0,5.077,2.276,5.077,5.076C11.077,7.317,10.573,8.52,9.747,9.423z"/>
	<circle fill="#231F20" cx="5.985" cy="5.235" r="2.278"/>
</g>
</svg>
