<?xml version="1.0" encoding="utf-8"?>
<!-- Generator: Adobe Illustrator 16.0.0, SVG Export Plug-In . SVG Version: 6.00 Build 0)  -->
<!DOCTYPE svg PUBLIC "-//W3C//DTD SVG 1.0//EN" "http://www.w3.org/TR/2001/REC-SVG-20010904/DTD/svg10.dtd">
<svg version="1.0" id="Layer_1" xmlns="http://www.w3.org/2000/svg" xmlns:xlink="http://www.w3.org/1999/xlink" x="0px" y="0px"
	 width="10.546px" height="10.124px" viewBox="0 0 10.546 10.124" enable-background="new 0 0 10.546 10.124" xml:space="preserve">
<g>
	<path d="M3.823,4.169c-0.276,0-0.5-0.224-0.5-0.5V1H0.5C0.224,1,0,0.776,0,0.5S0.224,0,0.5,0h3.823v3.669
		C4.323,3.945,4.099,4.169,3.823,4.169z"/>
	<path d="M5.407,10.124c-2.833,0-5.139-2.306-5.139-5.139c0-2.138,1.346-4.073,3.348-4.818C3.876,0.072,4.163,0.202,4.26,0.462
		c0.096,0.259-0.036,0.546-0.294,0.643c-1.613,0.6-2.697,2.159-2.697,3.881c0,2.282,1.856,4.139,4.139,4.139
		c2.282,0,4.139-1.856,4.139-4.139c0-1.42-0.715-2.725-1.914-3.491C7.4,1.346,7.332,1.037,7.48,0.804
		C7.629,0.57,7.938,0.502,8.171,0.652c1.486,0.95,2.375,2.57,2.375,4.333C10.546,7.818,8.241,10.124,5.407,10.124z"/>
</g>
</svg>
