<?xml version="1.0" encoding="utf-8"?>
<!-- Generator: Adobe Illustrator 16.0.0, SVG Export Plug-In . SVG Version: 6.00 Build 0)  -->
<!DOCTYPE svg PUBLIC "-//W3C//DTD SVG 1.0//EN" "http://www.w3.org/TR/2001/REC-SVG-20010904/DTD/svg10.dtd">
<svg version="1.0" id="Layer_1" xmlns="http://www.w3.org/2000/svg" xmlns:xlink="http://www.w3.org/1999/xlink" x="0px" y="0px"
	 width="15.958px" height="10.393px" viewBox="0 0 15.958 10.393" enable-background="new 0 0 15.958 10.393" xml:space="preserve">
<path fill="#F0A655" d="M15.958,6.246h-1.647c-0.065-0.773-0.294-1.432-0.707-1.958c-0.49-0.628-1.116-0.941-1.878-0.941
	S10.33,3.657,9.822,4.277L9.646,4.489V0.043L9.58,0C9.155,0.146,8.787,0.266,8.474,0.358C8.167,0.451,7.798,0.554,7.368,0.666v0.22
	C7.808,0.837,8.087,0.865,8.207,0.97c0.119,0.105,0.179,0.378,0.179,0.817v4.459H6.189V5.391c0-0.674-0.188-1.184-0.564-1.527
	c-0.376-0.345-0.93-0.517-1.663-0.517c-0.669,0-1.245,0.166-1.729,0.498S1.509,4.572,1.509,5.031c0,0.181,0.061,0.333,0.183,0.458
	c0.122,0.124,0.271,0.187,0.447,0.187c0.249,0,0.437-0.093,0.564-0.278s0.154-0.405,0.081-0.659C2.7,4.45,2.759,4.206,2.959,4.006
	s0.486-0.301,0.857-0.301c0.4,0,0.693,0.11,0.879,0.33S4.973,4.6,4.973,5.068v0.798l-0.919,0.38H0v1h2.068
	C1.944,7.34,1.833,7.436,1.74,7.532C1.395,7.892,1.223,8.317,1.223,8.811c0,0.464,0.15,0.844,0.45,1.139
	c0.301,0.296,0.685,0.443,1.154,0.443c0.479,0,0.999-0.2,1.56-0.601C4.602,9.641,4.805,9.47,4.995,9.279
	c0.01,0.356,0.093,0.625,0.249,0.806c0.166,0.195,0.405,0.293,0.718,0.293c0.22,0,0.454-0.068,0.703-0.205s0.459-0.313,0.63-0.527
	V9.25C7.197,9.338,7.088,9.409,6.969,9.463c-0.12,0.054-0.233,0.08-0.341,0.08c-0.161,0-0.274-0.053-0.341-0.157
	C6.222,9.28,6.189,9.102,6.189,8.848V7.246h2.197v2.23c0,0.211,0.275,0.416,0.824,0.615c0.55,0.2,1.107,0.301,1.673,0.301
	c0.943,0,1.754-0.365,2.436-1.095c0.553-0.592,0.869-1.278,0.974-2.052h1.666V6.246z M4.973,6.232v0.014H4.937L4.973,6.232z
	 M4.973,8.467c0,0.181-0.022,0.319-0.066,0.417C4.863,8.977,4.775,9.066,4.644,9.154C4.277,9.409,3.911,9.535,3.545,9.535
	c-0.298,0-0.539-0.109-0.721-0.329C2.64,8.986,2.549,8.698,2.549,8.342c0-0.381,0.138-0.728,0.414-1.04
	C2.98,7.281,3.009,7.266,3.028,7.246h1.945V8.467z M9.646,5.316c0-0.088,0.013-0.167,0.04-0.237c0.027-0.071,0.07-0.138,0.129-0.202
	c0.365-0.395,0.801-0.593,1.303-0.593c0.586,0,1.053,0.262,1.399,0.784c0.214,0.322,0.354,0.721,0.436,1.178H9.646V5.316z
	 M12.546,9.225c-0.327,0.461-0.815,0.691-1.465,0.691c-0.522,0-0.944-0.114-1.267-0.344C9.75,9.528,9.708,9.477,9.682,9.418
	C9.658,9.359,9.646,9.279,9.646,9.177V7.246h3.388C13.024,8.114,12.864,8.776,12.546,9.225z"/>
</svg>
