<?xml version="1.0" encoding="utf-8"?>
<!-- Generator: Adobe Illustrator 16.0.0, SVG Export Plug-In . SVG Version: 6.00 Build 0)  -->
<!DOCTYPE svg PUBLIC "-//W3C//DTD SVG 1.0//EN" "http://www.w3.org/TR/2001/REC-SVG-20010904/DTD/svg10.dtd">
<svg version="1.0" id="Layer_1" xmlns="http://www.w3.org/2000/svg" xmlns:xlink="http://www.w3.org/1999/xlink" x="0px" y="0px"
	 width="10.882px" height="10.818px" viewBox="292.437 416.148 10.882 10.818"
	 enable-background="new 292.437 416.148 10.882 10.818" xml:space="preserve">
<rect x="292.777" y="420.537" fill="#797775" width="10.233" height="0.6"/>
<rect x="292.777" y="423.351" fill="#797775" width="10.233" height="0.6"/>
<rect x="295.896" y="417.907" fill="#797775" width="0.6" height="8.727"/>
<rect x="299.323" y="417.907" fill="#797775" width="0.601" height="8.727"/>
<rect x="292.729" y="416.416" fill="#C8C6C4" width="10.281" height="1.451"/>
<path fill="#3A3A38" d="M303.319,426.966h-10.882v-10.818h10.882V426.966z M293.036,426.367h9.684v-9.62h-9.684V426.367z"/>
<path fill="#3A3A38" d="M303.01,418.216h-10.233c-0.166,0-0.3-0.134-0.3-0.3s0.134-0.3,0.3-0.3h10.233c0.166,0,0.3,0.134,0.3,0.3
	S303.176,418.216,303.01,418.216z"/>
</svg>
