<?xml version="1.0" encoding="utf-8"?>
<!-- Generator: Adobe Illustrator 16.0.0, SVG Export Plug-In . SVG Version: 6.00 Build 0)  -->
<!DOCTYPE svg PUBLIC "-//W3C//DTD SVG 1.0//EN" "http://www.w3.org/TR/2001/REC-SVG-20010904/DTD/svg10.dtd">
<svg version="1.0" id="Layer_1" xmlns="http://www.w3.org/2000/svg" xmlns:xlink="http://www.w3.org/1999/xlink" x="0px" y="0px"
	 width="20px" height="20px" viewBox="0 0 20 20" enable-background="new 0 0 20 20" xml:space="preserve">
<circle fill="#FFFFFF" cx="10.03" cy="10.271" r="9.021"/>
<path fill="#DAD9D8" d="M13.324,6.542c0,0-3.954,4.067-4.934,5.081c-0.805-0.809-2.506-2.507-2.506-2.507
	c-0.345-0.341-0.898-0.341-1.244,0c-0.344,0.345-0.344,0.903,0,1.247l3.136,3.136c0.167,0.165,0.393,0.259,0.63,0.256
	c0.234,0,0.46-0.097,0.623-0.267l5.556-5.721c0.341-0.35,0.331-0.906-0.018-1.244C14.222,6.185,13.662,6.193,13.324,6.542z"/>
</svg>
