<?xml version="1.0" encoding="utf-8"?>
<!-- Generator: Adobe Illustrator 16.0.0, SVG Export Plug-In . SVG Version: 6.00 Build 0)  -->
<!DOCTYPE svg PUBLIC "-//W3C//DTD SVG 1.0//EN" "http://www.w3.org/TR/2001/REC-SVG-20010904/DTD/svg10.dtd">
<svg version="1.0" id="Layer_1" xmlns="http://www.w3.org/2000/svg" xmlns:xlink="http://www.w3.org/1999/xlink" x="0px" y="0px"
	 width="9.766px" height="11.968px" viewBox="0 0 9.766 11.968" enable-background="new 0 0 9.766 11.968" xml:space="preserve">
<g>
	<g>
		<path d="M8.44,5.97c0.005,1.201-0.29,2.098-0.884,2.691c-0.593,0.594-1.49,0.891-2.691,0.891c-1.215,0-2.114-0.292-2.699-0.877
			C1.583,8.091,1.288,7.189,1.284,5.97V1.497c0-0.501-0.082-0.829-0.245-0.983C0.875,0.359,0.529,0.278,0,0.269V0h2.043h2.05v0.269
			c-0.566,0.01-0.936,0.091-1.108,0.245S2.726,0.996,2.726,1.497v4.632c0,0.975,0.195,1.687,0.586,2.136
			c0.391,0.448,1.01,0.673,1.857,0.673c0.883,0,1.546-0.233,1.987-0.7c0.442-0.468,0.663-1.17,0.663-2.108V2.05
			c0-0.728-0.086-1.203-0.259-1.429C7.389,0.396,7.02,0.278,6.453,0.269V0h1.656h1.656v0.269C9.219,0.278,8.86,0.396,8.692,0.621
			S8.44,1.322,8.44,2.05V5.97z"/>
	</g>
</g>
<rect x="0.384" y="10.968" width="9.083" height="1"/>
</svg>
