<?xml version="1.0" encoding="utf-8"?>
<!-- Generator: Adobe Illustrator 16.0.0, SVG Export Plug-In . SVG Version: 6.00 Build 0)  -->
<!DOCTYPE svg PUBLIC "-//W3C//DTD SVG 1.0//EN" "http://www.w3.org/TR/2001/REC-SVG-20010904/DTD/svg10.dtd">
<svg version="1.0" id="Layer_1" xmlns="http://www.w3.org/2000/svg" xmlns:xlink="http://www.w3.org/1999/xlink" x="0px" y="0px"
	 width="8.389px" height="9.741px" viewBox="0 0 8.389 9.741" enable-background="new 0 0 8.389 9.741" xml:space="preserve">
<g>
	<path d="M4.085,4.819H0V0.734c0-0.276,0.224-0.5,0.5-0.5S1,0.458,1,0.734v3.085h3.085c0.276,0,0.5,0.224,0.5,0.5
		S4.361,4.819,4.085,4.819z"/>
	<path d="M3.148,9.741c-0.128,0-0.256-0.049-0.354-0.146c-0.195-0.195-0.195-0.512,0-0.707l3.983-3.984
		C6.91,4.768,8.049,3.527,6.839,2.06C6.288,1.392,5.72,1.036,5.15,1.001c-0.702-0.039-1.228,0.44-1.233,0.444L0.863,4.664
		c-0.191,0.2-0.507,0.208-0.707,0.018c-0.2-0.189-0.208-0.507-0.019-0.707l3.07-3.232c0.046-0.044,0.839-0.789,1.985-0.739
		C6.056,0.048,6.87,0.526,7.611,1.423C9.062,3.184,8.163,4.932,7.485,5.61L3.501,9.594C3.404,9.692,3.276,9.741,3.148,9.741z"/>
</g>
</svg>
