<?xml version="1.0" encoding="utf-8"?>
<!-- Generator: Adobe Illustrator 16.0.0, SVG Export Plug-In . SVG Version: 6.00 Build 0)  -->
<!DOCTYPE svg PUBLIC "-//W3C//DTD SVG 1.0//EN" "http://www.w3.org/TR/2001/REC-SVG-20010904/DTD/svg10.dtd">
<svg version="1.0" id="Layer_1" xmlns="http://www.w3.org/2000/svg" xmlns:xlink="http://www.w3.org/1999/xlink" x="0px" y="0px"
	 width="26.188px" height="26.374px" viewBox="0 0 26.188 26.374" enable-background="new 0 0 26.188 26.374" xml:space="preserve">
<g>
	<path fill="#EFA654" d="M17.102,14.652c-0.624-0.402-0.885,0.08-0.885,0.08s-0.684,0.883-0.905,1.124
		c-0.219,0.241-0.32,0.421-0.982,0.161c-0.663-0.262-1.627-0.965-2.33-1.607c-0.6-0.548-1.445-1.787-1.748-2.289
		c-0.301-0.502-0.059-0.643-0.059-0.643s0.381-0.342,0.822-0.863c0.443-0.522,0.182-1.085,0.182-1.085l-1.024-2.651
		C9.98,6.508,8.927,6.397,8.425,6.698C7.923,7,6.858,8.125,6.858,9.691c0,1.193-0.061,1.506,1.687,4.117
		c1.747,2.61,4.086,3.995,4.8,4.338c0.965,0.461,2.39,1.145,3.535,1.064c1.145-0.08,2.268-0.783,2.75-1.729
		c0.482-0.943,0.082-1.405,0.082-1.405S17.855,15.139,17.102,14.652z"/>
	<path fill="#EFA654" d="M13.355,0C6.278,0,0.521,5.758,0.521,12.834c0,2.629,1.356,5.57,1.902,6.645L0,26.374l6.996-2.39
		c1.019,0.492,3.753,1.682,6.359,1.682c7.076,0,12.832-5.757,12.832-12.832C26.188,5.758,20.432,0,13.355,0z M13.355,23.616
		c-2.692,0-5.769-1.628-5.8-1.644l-0.394-0.211l-3.828,1.308l1.325-3.768l-0.226-0.403c-0.019-0.033-1.862-3.371-1.862-6.064
		c0-5.946,4.838-10.783,10.784-10.783c5.945,0,10.783,4.837,10.783,10.783C24.139,18.779,19.301,23.616,13.355,23.616z"/>
</g>
</svg>
