<?xml version="1.0" encoding="utf-8"?>
<!-- Generator: Adobe Illustrator 16.0.0, SVG Export Plug-In . SVG Version: 6.00 Build 0)  -->
<!DOCTYPE svg PUBLIC "-//W3C//DTD SVG 1.0//EN" "http://www.w3.org/TR/2001/REC-SVG-20010904/DTD/svg10.dtd">
<svg version="1.0" id="Layer_1" xmlns="http://www.w3.org/2000/svg" xmlns:xlink="http://www.w3.org/1999/xlink" x="0px" y="0px"
	 width="12px" height="12px" viewBox="3.177 -0.706 12 12" enable-background="new 3.177 -0.706 12 12" xml:space="preserve">
<g>
	<path d="M9.176-0.706c-3.308,0-5.999,2.693-5.999,6.001c0,3.307,2.691,5.999,5.999,5.999c3.31,0,6.001-2.692,6.001-5.999
		C15.177,1.987,12.485-0.706,9.176-0.706z M9.176,10.075c-2.634,0-4.781-2.143-4.781-4.78c0-2.64,2.147-4.782,4.781-4.782
		c2.638,0,4.784,2.143,4.784,4.782C13.96,7.933,11.814,10.075,9.176,10.075z"/>
	<rect x="6.838" y="4.853" width="4.681" height="0.883"/>
</g>
</svg>
