<?xml version="1.0" encoding="utf-8"?>
<!-- Generator: Adobe Illustrator 16.0.0, SVG Export Plug-In . SVG Version: 6.00 Build 0)  -->
<!DOCTYPE svg PUBLIC "-//W3C//DTD SVG 1.0//EN" "http://www.w3.org/TR/2001/REC-SVG-20010904/DTD/svg10.dtd">
<svg version="1.0" id="Layer_1" xmlns="http://www.w3.org/2000/svg" xmlns:xlink="http://www.w3.org/1999/xlink" x="0px" y="0px"
	 width="14.827px" height="7.885px" viewBox="0 0 14.827 7.885" enable-background="new 0 0 14.827 7.885" xml:space="preserve">
<g>
	<path fill="#F0A655" d="M2.045,3.197V2.071L0,3.942l2.045,1.871V4.721l1.001,0.261c0,0-0.266-1.141,0-2.078L2.045,3.197z"/>
	<path fill="#F0A655" d="M14.827,3.942l-2.045-1.871v1.126l-1.001-0.294c0.266,0.938,0,2.078,0,2.078l1.001-0.261v1.093
		L14.827,3.942z"/>
	<path fill="#F0A655" d="M7.392,0C5.218,0,3.45,1.769,3.45,3.942s1.768,3.942,3.942,3.942s3.941-1.769,3.941-3.942S9.565,0,7.392,0z
		 M7.392,7.084c-1.732,0-3.142-1.409-3.142-3.142s1.41-3.142,3.142-3.142s3.143,1.409,3.143,3.142S9.124,7.084,7.392,7.084z"/>
	<polygon fill="#F0A655" points="7.678,1.567 7.106,1.567 7.106,3.665 5.089,3.665 5.089,4.201 7.106,4.201 7.106,6.316 
		7.678,6.316 7.678,4.201 9.694,4.201 9.694,3.665 7.678,3.665 	"/>
</g>
</svg>
