<?xml version="1.0" encoding="utf-8"?>
<!-- Generator: Adobe Illustrator 16.0.0, SVG Export Plug-In . SVG Version: 6.00 Build 0)  -->
<!DOCTYPE svg PUBLIC "-//W3C//DTD SVG 1.0//EN" "http://www.w3.org/TR/2001/REC-SVG-20010904/DTD/svg10.dtd">
<svg version="1.0" id="Layer_1" xmlns="http://www.w3.org/2000/svg" xmlns:xlink="http://www.w3.org/1999/xlink" x="0px" y="0px"
	 width="12px" height="12px" viewBox="3.961 0.294 12 12" enable-background="new 3.961 0.294 12 12" xml:space="preserve">
<g>
	<path d="M9.96,0.294c-3.31,0-5.999,2.693-5.999,6.001c0,3.307,2.689,5.999,5.999,5.999c3.308,0,6.001-2.692,6.001-5.999
		C15.961,2.987,13.268,0.294,9.96,0.294z M9.96,11.075c-2.636,0-4.781-2.143-4.781-4.78c0-2.64,2.146-4.782,4.781-4.782
		c2.637,0,4.784,2.143,4.784,4.782C14.744,8.933,12.597,11.075,9.96,11.075z"/>
	<polygon points="10.396,2.682 9.527,2.682 9.527,5.873 6.456,5.873 6.456,6.688 9.527,6.688 9.527,9.908 10.396,9.908 
		10.396,6.688 13.465,6.688 13.465,5.873 10.396,5.873 	"/>
</g>
</svg>
